<?xml version="1.0" encoding="utf-8"?>
<!-- Generator: Adobe Illustrator 27.2.0, SVG Export Plug-In . SVG Version: 6.00 Build 0)  -->
<svg version="1.1" id="Calque_1" focusable="false" xmlns="http://www.w3.org/2000/svg" xmlns:xlink="http://www.w3.org/1999/xlink"
	 x="0px" y="0px" viewBox="0 0 73 74" style="enable-background:new 0 0 73 74;" xml:space="preserve">
<path d="M66.3,48l-13.6-5.8c-1.2-0.5-2.6-0.2-3.4,0.8l-6,7.4c-9.5-4.5-17.1-12.1-21.5-21.5l7.4-6c1-0.8,1.4-2.2,0.8-3.4L24.1,5.8
	c-0.6-1.3-2-2-3.3-1.7L8.1,7C6.8,7.3,5.9,8.5,5.9,9.8c0,31.2,25.3,56.4,56.4,56.4c1.4,0,2.5-0.9,2.8-2.3L68,51.3
	C68.3,49.9,67.6,48.5,66.3,48L66.3,48z"/>
</svg>
